# xmcd
#
# Track frame offsets:
#	150
#	5794
#	27282
#	54689
#	84115
#	108584
#	111475
#	141007
#	166344
#	172383
#
# Disc length: 2762 seconds
#
# Revision: 1
# Processed by: cddbd v1.5.2PL0 Copyright (c) Steve Scherf et al.
# Submitted via: audiograbber 1.83.01
#
DISCID=880ac80a
DTITLE=Raz Ohara and the Odd Orchestra - II
DYEAR=2009
DGENRE=Pop
TTITLE0=Fragment I
TTITLE1=The Burning (Desire)
TTITLE2=Losing My Name
TTITLE3=Varsha
TTITLE4=Wildbirds
TTITLE5=Fragment II
TTITLE6=The Day You Suffered Helpless Out Of Reach And All Lines Were Dead
TTITLE7=Kingdom
TTITLE8=Fragment III
TTITLE9=Praise The Day (No One Owes You Nothing)
EXTD=
EXTT0=
EXTT1=
EXTT2=
EXTT3=
EXTT4=
EXTT5=
EXTT6=
EXTT7=
EXTT8=
EXTT9=
PLAYORDER=
